<svg id="svg" xmlns="http://www.w3.org/2000/svg" xmlns:xlink="http://www.w3.org/1999/xlink" width="400" height="400" viewBox="0, 0, 400,400"><g id="svgg"><path id="path0" d="M55.000 69.324 C 32.818 78.932,33.333 75.824,33.333 200.000 C 33.333 345.466,24.828 333.333,126.808 333.333 L 192.055 333.333 190.962 329.583 C 190.361 327.521,189.001 321.931,187.940 317.161 L 186.011 308.488 126.383 307.994 C 66.863 307.501,66.748 307.493,62.961 303.704 L 59.167 299.907 59.167 200.000 L 59.167 100.093 62.960 96.296 C 66.562 92.690,68.190 92.472,95.409 91.937 C 140.631 91.048,137.693 90.152,165.705 113.396 L 189.567 133.197 261.406 133.682 L 333.244 134.167 337.039 137.960 C 340.628 141.548,340.864 143.241,341.395 169.280 L 341.956 196.807 348.356 200.848 C 351.877 203.070,357.436 207.241,360.712 210.117 L 366.667 215.345 366.667 175.952 C 366.667 107.137,368.493 108.422,270.611 108.370 L 202.055 108.333 180.647 90.581 C 150.473 65.561,154.282 66.734,103.333 66.769 C 69.080 66.792,59.701 67.287,55.000 69.324 M265.000 203.146 C 164.685 235.616,185.916 383.021,290.947 383.290 C 397.866 383.564,419.382 233.146,316.781 202.687 C 304.285 198.978,277.136 199.218,265.000 203.146 M298.375 230.942 C 299.269 233.293,300.000 246.043,300.000 259.275 L 300.000 283.333 324.058 283.333 C 352.360 283.333,356.667 284.434,356.667 291.667 C 356.667 298.899,352.360 300.000,324.058 300.000 L 300.000 300.000 300.000 324.058 C 300.000 352.360,298.899 356.667,291.667 356.667 C 284.434 356.667,283.333 352.360,283.333 324.058 L 283.333 300.000 259.275 300.000 C 230.973 300.000,226.667 298.899,226.667 291.667 C 226.667 284.434,230.973 283.333,259.275 283.333 L 283.333 283.333 283.333 259.275 C 283.333 230.973,284.434 226.667,291.667 226.667 C 295.589 226.667,297.120 227.643,298.375 230.942 " stroke="none" fill="#000000" fill-rule="evenodd"></path></g></svg>