<svg id="svg" xmlns="http://www.w3.org/2000/svg" xmlns:xlink="http://www.w3.org/1999/xlink" width="400" height="400" viewBox="0, 0, 400,400"><g id="svgg"><path id="path0" d="M109.167 107.850 C 107.333 108.267,85.771 128.603,61.250 153.042 C 3.582 210.518,3.561 197.757,61.419 255.586 C 110.594 304.736,112.818 306.256,122.039 297.035 C 130.913 288.161,128.842 284.711,93.266 249.099 L 60.865 216.667 219.341 216.667 C 397.972 216.667,384.000 217.727,384.000 204.167 C 384.000 190.606,397.972 191.667,219.341 191.667 L 60.865 191.667 93.266 159.234 C 123.224 129.247,125.667 126.354,125.667 120.864 C 125.667 111.975,117.914 105.860,109.167 107.850 " stroke="none" fill="#000000" fill-rule="evenodd"></path></g></svg>