<svg id="svg" xmlns="http://www.w3.org/2000/svg" xmlns:xlink="http://www.w3.org/1999/xlink" width="400" height="400" viewBox="0, 0, 400,400"><g id="svgg"><path id="path0" d="M76.667 45.131 C 49.584 57.376,38.541 100.667,62.500 100.667 C 70.232 100.667,74.616 96.196,76.011 86.891 C 77.584 76.397,84.730 69.251,95.225 67.678 C 104.530 66.283,109.000 61.899,109.000 54.167 C 109.000 41.730,93.666 37.445,76.667 45.131 M136.092 44.715 C 128.340 53.280,134.457 66.667,146.123 66.667 C 157.399 66.667,163.499 51.858,155.285 44.425 C 151.079 40.618,139.643 40.791,136.092 44.715 M186.092 44.715 C 178.340 53.280,184.457 66.667,196.123 66.667 C 207.399 66.667,213.499 51.858,205.285 44.425 C 201.079 40.618,189.643 40.791,186.092 44.715 M235.758 45.083 C 227.996 53.661,233.722 65.771,246.442 67.678 C 256.936 69.251,264.083 76.397,265.656 86.891 C 267.562 99.612,279.673 105.338,288.250 97.575 C 296.253 90.333,290.521 65.586,278.121 53.844 C 265.854 42.229,242.679 37.436,235.758 45.083 M151.667 120.131 C 141.599 124.683,133.753 132.418,128.979 142.500 L 125.033 150.833 125.053 237.500 C 125.077 341.104,125.337 342.280,150.833 354.354 L 159.167 358.301 245.833 358.301 L 332.500 358.301 340.833 354.354 C 366.330 342.280,366.589 341.104,366.614 237.500 L 366.634 150.833 362.688 142.500 C 357.914 132.418,350.068 124.683,340.000 120.131 C 328.337 114.857,163.330 114.857,151.667 120.131 M52.758 128.048 C 48.951 132.255,49.124 143.690,53.048 147.242 C 61.613 154.993,75.000 148.876,75.000 137.210 C 75.000 125.934,60.192 119.834,52.758 128.048 M330.469 145.440 C 341.193 152.470,340.833 149.279,340.833 237.500 C 340.833 344.732,353.066 332.500,245.833 332.500 C 139.081 332.500,151.021 343.427,150.305 245.076 C 149.619 150.796,150.178 147.328,166.691 143.335 C 179.201 140.310,325.513 142.190,330.469 145.440 M52.758 178.048 C 48.951 182.255,49.124 193.690,53.048 197.242 C 61.613 204.993,75.000 198.876,75.000 187.210 C 75.000 175.934,60.192 169.834,52.758 178.048 M217.053 231.112 C 217.553 275.277,217.327 274.614,228.900 265.778 L 236.719 259.807 241.377 270.320 C 243.938 276.102,247.017 283.271,248.219 286.250 C 250.841 292.749,256.236 293.441,264.583 288.352 C 271.172 284.335,271.306 286.511,263.333 268.129 C 255.221 249.426,255.235 250.005,262.917 249.977 C 283.325 249.903,281.766 245.867,249.893 216.250 C 214.210 183.093,216.497 182.058,217.053 231.112 M58.333 224.481 C 45.405 229.414,47.517 254.305,62.178 269.787 C 73.920 282.188,98.666 287.920,105.908 279.917 C 113.671 271.339,107.945 259.229,95.225 257.322 C 84.730 255.749,77.584 248.603,76.011 238.109 C 74.442 227.637,66.370 221.415,58.333 224.481 " stroke="none" fill="#000000" fill-rule="evenodd"></path></g></svg>