<svg id="svg" xmlns="http://www.w3.org/2000/svg" xmlns:xlink="http://www.w3.org/1999/xlink" width="400" height="400" viewBox="0, 0, 400,400"><g id="svgg"><path id="path0" d="M88.333 35.991 C 80.800 39.254,73.847 45.908,69.847 53.684 C 64.892 63.318,64.892 336.682,69.847 346.316 C 79.460 365.004,85.169 366.667,139.727 366.667 L 184.561 366.667 187.459 356.338 C 189.053 350.657,190.715 345.076,191.152 343.937 C 191.771 342.323,181.779 341.750,146.017 341.349 C 100.772 340.841,100.030 340.777,96.294 337.037 L 92.500 333.241 92.500 200.000 L 92.500 66.759 96.294 62.963 C 100.048 59.206,100.601 59.161,150.044 58.659 L 200.000 58.151 200.000 99.142 C 200.000 164.207,202.487 166.667,268.280 166.667 L 308.333 166.667 308.333 183.481 L 308.333 200.296 313.199 196.202 C 315.875 193.950,321.497 190.696,325.693 188.971 L 333.321 185.833 333.327 166.658 L 333.333 147.482 276.241 90.408 L 219.149 33.333 156.658 33.399 C 104.597 33.453,93.193 33.886,88.333 35.991 M267.104 141.339 C 225.326 142.333,226.021 142.933,225.311 105.245 L 224.788 77.500 256.582 109.167 L 288.376 140.833 267.104 141.339 M329.167 203.199 C 324.820 205.237,303.748 225.139,268.614 260.391 L 214.728 314.458 207.364 340.100 C 193.931 386.874,196.459 389.402,243.234 375.969 L 268.876 368.605 322.942 314.719 C 381.722 256.136,383.237 254.185,383.297 237.001 C 383.394 208.968,354.863 191.152,329.167 203.199 " stroke="none" fill="#000000" fill-rule="evenodd"></path></g></svg>