<svg id="svg" xmlns="http://www.w3.org/2000/svg" xmlns:xlink="http://www.w3.org/1999/xlink" width="400" height="400" viewBox="0, 0, 400,400"><g id="svgg"><path id="path0" d="M308.333 49.481 C 301.073 52.251,300.000 55.049,300.000 71.203 L 300.000 86.890 292.917 81.227 C 195.641 3.464,50.000 74.674,50.000 200.000 C 50.000 357.809,264.865 408.651,334.856 267.403 C 355.669 225.402,356.241 166.000,335.833 166.000 C 324.430 166.000,322.809 169.743,323.155 195.286 C 325.152 343.053,116.402 373.164,79.883 230.376 C 51.220 118.305,189.708 27.884,275.833 102.437 L 282.500 108.208 264.842 108.271 C 242.223 108.351,233.145 117.821,244.092 129.917 C 248.610 134.910,317.762 135.236,322.242 130.285 C 326.520 125.557,326.380 56.760,322.083 52.888 C 318.662 49.805,311.886 48.126,308.333 49.481 " stroke="none" fill="#000000" fill-rule="evenodd"></path></g></svg>