<svg id="svg" xmlns="http://www.w3.org/2000/svg" xmlns:xlink="http://www.w3.org/1999/xlink" width="400" height="400" viewBox="0, 0, 400,400"><g id="svgg"><path id="path0" d="M55.000 60.991 C 47.466 64.254,40.513 70.908,36.514 78.684 C 31.575 88.285,31.575 295.048,36.514 304.650 C 46.354 323.779,50.972 325.000,113.474 325.000 L 165.389 325.000 164.384 321.250 C 163.831 319.188,163.369 313.605,163.356 308.844 L 163.333 300.188 115.044 299.677 C 67.338 299.173,66.708 299.121,62.960 295.370 L 59.167 291.574 59.167 191.667 L 59.167 91.759 62.960 87.963 C 66.562 84.357,68.190 84.138,95.409 83.604 C 140.644 82.715,137.681 81.808,165.787 105.131 L 189.731 125.000 206.986 125.000 L 224.240 125.000 226.938 138.046 C 237.726 190.218,276.503 228.952,328.765 239.759 L 341.956 242.486 341.395 267.033 C 340.597 301.924,345.589 299.036,284.956 299.677 L 236.667 300.188 236.644 308.844 C 236.631 313.605,236.169 319.188,235.616 321.250 L 234.611 325.000 286.889 324.963 C 371.385 324.904,366.667 331.556,366.667 212.500 C 366.667 91.307,374.176 100.092,270.541 100.037 L 201.916 100.000 180.899 82.392 C 151.016 57.356,154.397 58.401,103.333 58.435 C 69.080 58.458,59.701 58.954,55.000 60.991 M277.529 134.583 C 285.190 161.133,305.454 181.376,332.133 189.132 L 341.667 191.903 341.667 203.527 L 341.667 215.151 335.417 214.037 C 296.084 207.027,259.639 170.583,252.629 131.250 L 251.516 125.000 263.140 125.000 L 274.763 125.000 277.529 134.583 M337.037 129.630 C 340.062 132.655,340.751 135.661,341.366 148.515 L 342.097 163.803 337.298 162.646 C 324.790 159.630,307.011 141.854,304.015 129.368 L 302.864 124.570 318.152 125.301 C 331.006 125.915,334.012 126.604,337.037 129.630 M163.518 219.271 C 132.624 247.816,129.846 251.580,133.713 259.649 C 139.946 272.654,148.188 270.527,169.953 250.301 L 186.667 234.768 186.720 276.134 C 186.760 307.429,187.300 318.194,188.939 320.351 C 192.329 324.814,199.293 326.853,204.448 324.893 C 213.033 321.629,213.223 320.580,213.280 276.134 L 213.333 234.768 230.047 250.301 C 239.240 258.844,248.588 266.449,250.822 267.203 C 259.472 270.120,269.688 260.145,267.398 251.018 C 265.245 242.442,207.586 191.667,200.000 191.667 C 193.771 191.667,191.687 193.244,163.518 219.271 " stroke="none" fill="#000000" fill-rule="evenodd"></path></g></svg>